<svg xmlns="http://www.w3.org/2000/svg" xmlns:xlink="http://www.w3.org/1999/xlink" width="275" zoomAndPan="magnify" viewBox="0 0 206.25 172.499994" height="230" preserveAspectRatio="xMidYMid meet" version="1.0"><defs><clipPath id="32fca33bc0"><path d="M 0 0.0625 L 205.503906 0.0625 L 205.503906 171.9375 L 0 171.9375 Z M 0 0.0625 " clip-rule="nonzero"/></clipPath><clipPath id="e83f84abb7"><path d="M 0 118 L 204.753906 118 L 204.753906 171.554688 L 0 171.554688 Z M 0 118 " clip-rule="nonzero"/></clipPath><clipPath id="11ba0900c8"><path d="M 51 77.398438 L 101 77.398438 L 101 154 L 51 154 Z M 51 77.398438 " clip-rule="nonzero"/></clipPath><clipPath id="01655dff52"><path d="M 100 55 L 145 55 L 145 127 L 100 127 Z M 100 55 " clip-rule="nonzero"/></clipPath><clipPath id="13fbe76e7f"><path d="M 49.101562 16.222656 L 133.515625 0.113281 L 155.648438 116.09375 L 71.234375 132.199219 Z M 49.101562 16.222656 " clip-rule="nonzero"/></clipPath><clipPath id="10335c9877"><path d="M 49.101562 16.222656 L 133.515625 0.113281 L 155.648438 116.09375 L 71.234375 132.199219 Z M 49.101562 16.222656 " clip-rule="nonzero"/></clipPath><clipPath id="34b5c94c2f"><path d="M 136.292969 83.210938 C 132.429688 87.964844 127.28125 91.488281 122.128906 94.796875 C 116.980469 98.109375 111.679688 101.320312 107.335938 105.640625 C 107.304688 105.679688 107.269531 105.707031 107.234375 105.742188 C 102.058594 110.925781 99.507812 118.167969 100.167969 125.460938 C 100.210938 125.953125 100.265625 126.445312 100.320312 126.949219 C 100.609375 120.828125 103.988281 115.195312 108.335938 110.871094 C 112.679688 106.550781 117.96875 103.34375 123.128906 100.027344 C 128.277344 96.71875 133.429688 93.203125 137.289062 88.441406 C 144.695312 79.328125 146.425781 66.453125 143.496094 55.054688 C 144.765625 65.011719 142.582031 75.46875 136.292969 83.210938 Z M 136.292969 83.210938 " clip-rule="nonzero"/></clipPath><clipPath id="6d1caebd3b"><path d="M 87 22 L 139 22 L 139 118 L 87 118 Z M 87 22 " clip-rule="nonzero"/></clipPath><clipPath id="4a8a59e420"><path d="M 49.101562 16.222656 L 133.515625 0.113281 L 155.648438 116.09375 L 71.234375 132.199219 Z M 49.101562 16.222656 " clip-rule="nonzero"/></clipPath><clipPath id="b6dcc88fe8"><path d="M 49.101562 16.222656 L 133.515625 0.113281 L 155.648438 116.09375 L 71.234375 132.199219 Z M 49.101562 16.222656 " clip-rule="nonzero"/></clipPath><clipPath id="f4f9f92822"><path d="M 136.972656 49.847656 C 133.847656 39.007812 126.632812 29.703125 118.117188 22.316406 C 121.578125 28.308594 119.765625 36.175781 115.78125 41.84375 C 111.800781 47.511719 106.003906 51.578125 100.699219 56.027344 C 95.394531 60.472656 90.273438 65.722656 88.488281 72.410156 C 87.117188 77.539062 87.878906 83.054688 89.675781 88.054688 C 90.855469 91.351562 92.464844 94.46875 94.222656 97.515625 C 95.074219 93.304688 96.523438 89.226562 98.539062 85.425781 C 102.675781 77.640625 108.457031 70.804688 114.496094 64.375 C 126.042969 52.070312 126.171875 47.902344 125.082031 40.613281 C 127.558594 46.222656 125.78125 52.90625 122.492188 58.082031 C 119.203125 63.253906 114.566406 67.421875 110.664062 72.152344 C 100.324219 84.683594 95.351562 101.496094 97.207031 117.632812 C 97.480469 111.960938 100.605469 106.726562 104.640625 102.722656 C 108.671875 98.710938 113.585938 95.738281 118.359375 92.667969 C 123.144531 89.597656 127.925781 86.335938 131.496094 81.917969 C 138.621094 73.171875 140.085938 60.6875 136.972656 49.847656 Z M 136.972656 49.847656 " clip-rule="nonzero"/></clipPath><clipPath id="c5c743c9f6"><path d="M 57 11 L 104 11 L 104 83 L 57 83 Z M 57 11 " clip-rule="nonzero"/></clipPath><clipPath id="128931516b"><path d="M 49.101562 16.222656 L 133.515625 0.113281 L 155.648438 116.09375 L 71.234375 132.199219 Z M 49.101562 16.222656 " clip-rule="nonzero"/></clipPath><clipPath id="312b112adf"><path d="M 49.101562 16.222656 L 133.515625 0.113281 L 155.648438 116.09375 L 71.234375 132.199219 Z M 49.101562 16.222656 " clip-rule="nonzero"/></clipPath></defs><g clip-path="url(#32fca33bc0)"><path fill="#ffffff" d="M 0 0.0625 L 205.503906 0.0625 L 205.503906 171.9375 L 0 171.9375 Z M 0 0.0625 " fill-opacity="1" fill-rule="nonzero"/></g><path fill="#ff997a" d="M 136.484375 116.34375 C 136.3125 116.457031 135.914062 116.726562 135.378906 117.089844 C 135.378906 117.085938 135.382812 117.085938 135.386719 117.082031 C 135.988281 116.675781 136.335938 116.445312 136.484375 116.34375 Z M 136.484375 116.34375 " fill-opacity="1" fill-rule="nonzero"/><path fill="#ff997a" d="M 152.5625 103.292969 L 157.960938 81.867188 C 157.105469 83.332031 156.152344 84.714844 155.195312 86.070312 C 151.613281 91.132812 147.664062 95.757812 143.539062 100.046875 C 140.488281 103.21875 137.324219 106.207031 134.074219 109.015625 C 130.398438 112.195312 126.535156 114.964844 122.929688 118.28125 C 113.621094 126.847656 105.457031 138.6875 102.253906 153.214844 C 106.492188 144.617188 115.90625 130.246094 135.375 117.089844 C 133.214844 118.550781 128.824219 121.515625 128.164062 121.960938 C 128.578125 121.683594 130.585938 120.324219 135.382812 117.082031 C 142.316406 112.402344 148.027344 107.605469 152.5625 103.292969 Z M 128.144531 121.976562 C 128.0625 122.03125 128.054688 122.035156 128.144531 121.976562 Z M 128.144531 121.976562 " fill-opacity="1" fill-rule="nonzero"/><path fill="#ff997a" d="M 136.539062 116.304688 C 136.585938 116.273438 136.585938 116.273438 136.539062 116.304688 Z M 136.539062 116.304688 " fill-opacity="1" fill-rule="nonzero"/><path fill="#ff997a" d="M 136.484375 116.34375 C 136.507812 116.328125 136.527344 116.3125 136.539062 116.304688 C 136.527344 116.3125 136.507812 116.328125 136.484375 116.34375 Z M 136.484375 116.34375 " fill-opacity="1" fill-rule="nonzero"/><path fill="#ff997a" d="M 145.429688 119.347656 C 144.90625 119.628906 144.121094 120.050781 143.527344 120.367188 C 143.53125 120.367188 143.53125 120.367188 143.53125 120.363281 C 144.4375 119.878906 145.046875 119.554688 145.429688 119.347656 Z M 145.429688 119.347656 " fill-opacity="1" fill-rule="nonzero"/><path fill="#ff997a" d="M 143.53125 120.367188 C 142.265625 121.042969 142.699219 120.8125 143.53125 120.367188 C 129.375 127.941406 115.6875 138.617188 104.988281 153.214844 C 104.722656 153.574219 104.460938 153.9375 104.203125 154.300781 C 110.515625 141.75 119.894531 132.003906 129.625 124.378906 C 133.429688 121.398438 137.410156 118.867188 141.265625 116.007812 C 144.691406 113.464844 148.042969 110.734375 151.289062 107.804688 C 156.6875 102.9375 161.933594 97.542969 166.472656 91.3125 C 166.816406 90.839844 167.15625 90.367188 167.480469 89.871094 L 161.640625 108.992188 C 156.640625 112.625 150.546875 116.613281 143.53125 120.367188 Z M 143.53125 120.367188 " fill-opacity="1" fill-rule="nonzero"/><path fill="#ff997a" d="M 145.941406 119.074219 C 145.976562 119.058594 145.980469 119.054688 145.941406 119.074219 Z M 145.941406 119.074219 " fill-opacity="1" fill-rule="nonzero"/><path fill="#ff997a" d="M 145.429688 119.347656 C 145.453125 119.335938 145.476562 119.324219 145.496094 119.3125 C 145.476562 119.324219 145.457031 119.335938 145.429688 119.347656 Z M 145.429688 119.347656 " fill-opacity="1" fill-rule="nonzero"/><path fill="#ff997a" d="M 145.496094 119.3125 C 145.742188 119.183594 145.882812 119.105469 145.941406 119.074219 C 145.875 119.109375 145.71875 119.195312 145.496094 119.3125 Z M 145.496094 119.3125 " fill-opacity="1" fill-rule="nonzero"/><path fill="#ff997a" d="M 150.851562 127.203125 C 150.78125 127.21875 150.722656 127.234375 150.675781 127.246094 C 150.722656 127.234375 150.78125 127.21875 150.851562 127.203125 C 138.546875 130.191406 126.546875 135.941406 115.683594 144.308594 C 122.328125 137.472656 129.621094 131.75 137.21875 126.992188 C 141.246094 124.472656 145.402344 122.375 149.472656 119.992188 C 153.210938 117.800781 156.890625 115.433594 160.503906 112.898438 C 166.628906 108.601562 172.78125 103.902344 178.269531 98.25 L 171.988281 118.808594 C 166.496094 121.925781 159.390625 125.128906 150.851562 127.203125 Z M 150.851562 127.203125 " fill-opacity="1" fill-rule="nonzero"/><path fill="#ff997a" d="M 154.164062 126.398438 C 154.183594 126.394531 154.183594 126.394531 154.164062 126.398438 Z M 154.164062 126.398438 " fill-opacity="1" fill-rule="nonzero"/><path fill="#ff997a" d="M 150.878906 127.199219 C 150.894531 127.195312 150.910156 127.191406 150.921875 127.1875 C 150.910156 127.191406 150.894531 127.191406 150.878906 127.199219 Z M 150.878906 127.199219 " fill-opacity="1" fill-rule="nonzero"/><path fill="#ff997a" d="M 152.546875 126.792969 C 152.625 126.773438 152.703125 126.753906 152.78125 126.734375 C 152.707031 126.75 152.621094 126.773438 152.546875 126.792969 Z M 152.546875 126.792969 " fill-opacity="1" fill-rule="nonzero"/><path fill="#ff997a" d="M 152.78125 126.734375 C 152.964844 126.6875 153.125 126.648438 153.273438 126.617188 C 153.117188 126.652344 152.949219 126.691406 152.78125 126.734375 Z M 152.78125 126.734375 " fill-opacity="1" fill-rule="nonzero"/><path fill="#ff997a" d="M 150.878906 127.199219 C 150.871094 127.199219 150.863281 127.203125 150.851562 127.203125 C 150.863281 127.203125 150.871094 127.199219 150.878906 127.199219 Z M 150.878906 127.199219 " fill-opacity="1" fill-rule="nonzero"/><path fill="#ff997a" d="M 153.269531 126.617188 C 153.730469 126.503906 154.089844 126.417969 154.164062 126.398438 C 154.109375 126.410156 153.84375 126.476562 153.269531 126.617188 Z M 153.269531 126.617188 " fill-opacity="1" fill-rule="nonzero"/><path fill="#ff997a" d="M 150.925781 127.1875 C 151.011719 127.164062 151.089844 127.144531 151.175781 127.125 C 151.082031 127.144531 151 127.167969 150.925781 127.1875 Z M 150.925781 127.1875 " fill-opacity="1" fill-rule="nonzero"/><path fill="#ff997a" d="M 151.175781 127.125 C 151.234375 127.109375 151.289062 127.097656 151.355469 127.082031 C 151.296875 127.097656 151.234375 127.109375 151.175781 127.125 Z M 151.175781 127.125 " fill-opacity="1" fill-rule="nonzero"/><path fill="#ff997a" d="M 151.355469 127.082031 C 151.816406 126.96875 152.210938 126.871094 152.546875 126.789062 C 152.132812 126.890625 151.707031 126.996094 151.355469 127.082031 Z M 151.355469 127.082031 " fill-opacity="1" fill-rule="nonzero"/><path fill="#ff997a" d="M 161.488281 135.078125 C 161.535156 135.066406 161.535156 135.066406 161.488281 135.078125 Z M 161.488281 135.078125 " fill-opacity="1" fill-rule="nonzero"/><path fill="#ff997a" d="M 156.503906 136.285156 C 148.777344 138.210938 141.070312 140.304688 133.421875 142.78125 C 125.789062 145.253906 118.144531 147.980469 110.769531 151.652344 C 117.605469 145.5 125.035156 140.488281 132.757812 136.652344 C 136.746094 134.671875 140.816406 133.003906 144.945312 131.664062 C 149.214844 130.28125 153.554688 129.410156 157.816406 127.992188 C 164.304688 125.832031 170.664062 122.851562 176.699219 118.964844 C 180 116.835938 183.351562 114.488281 186.292969 111.542969 L 181.128906 128.441406 C 175.789062 130.722656 167.820312 133.546875 156.503906 136.285156 Z M 156.503906 136.285156 " fill-opacity="1" fill-rule="nonzero"/><path fill="#ff997a" d="M 156.542969 136.273438 C 159.921875 135.457031 161.261719 135.132812 161.488281 135.078125 C 161.050781 135.183594 156.960938 136.171875 156.542969 136.273438 Z M 156.542969 136.273438 " fill-opacity="1" fill-rule="nonzero"/><path fill="#ff997a" d="M 156.503906 136.285156 C 156.503906 136.285156 156.519531 136.28125 156.542969 136.273438 C 156.527344 136.277344 156.519531 136.28125 156.503906 136.285156 Z M 156.503906 136.285156 " fill-opacity="1" fill-rule="nonzero"/><g clip-path="url(#e83f84abb7)"><path fill="#ffdd55" d="M 162.578125 151.117188 L 157.710938 153.011719 L 109.519531 171.761719 L 100.910156 171.398438 L 100.714844 171.390625 L 92.101562 171.03125 L 45.648438 148.316406 L 40.953125 146.019531 L 6.175781 129.015625 L 0.0117188 126.003906 L 4.425781 123.769531 L 14.472656 118.679688 C 15.710938 119.78125 17.089844 120.65625 18.433594 121.503906 C 21.554688 123.46875 24.78125 125.136719 28.042969 126.675781 C 35.070312 129.992188 42.273438 132.5625 49.515625 135.015625 C 57.996094 137.894531 66.421875 141.085938 74.710938 144.765625 C 78.796875 146.578125 82.851562 148.507812 86.84375 150.65625 C 90.585938 152.671875 94.324219 154.835938 97.777344 157.601562 C 99.003906 158.582031 100.207031 159.644531 101.25 160.9375 C 104.429688 157.601562 108.53125 155.632812 112.296875 153.808594 C 116.351562 151.839844 120.492188 150.152344 124.648438 148.617188 C 133.09375 145.496094 141.636719 142.90625 150.21875 140.652344 C 158.152344 138.5625 166.101562 136.75 173.941406 134.042969 C 179.617188 132.082031 185.484375 129.96875 190.753906 126.441406 C 190.921875 126.328125 191.089844 126.210938 191.257812 126.089844 L 200.839844 132 L 205.054688 134.597656 L 198.660156 137.085938 Z M 162.578125 151.117188 " fill-opacity="1" fill-rule="nonzero"/></g><g clip-path="url(#11ba0900c8)"><path fill="#ff997a" d="M 100.894531 153.160156 C 100.292969 148.671875 99.191406 144.324219 97.714844 140.230469 C 95.050781 132.832031 91.175781 126.296875 86.695312 120.675781 C 83.699219 116.921875 80.410156 113.710938 77.050781 110.546875 C 73.710938 107.394531 70.480469 104.046875 67.386719 100.5 C 62.996094 95.46875 58.851562 90.035156 55.152344 84.117188 C 53.808594 81.96875 52.476562 79.761719 51.347656 77.398438 L 54.9375 99.203125 C 59.097656 103.878906 64.382812 109.136719 70.898438 114.382812 C 75.234375 117.875 77.152344 119.417969 77.636719 119.804688 C 76.871094 119.191406 72.890625 115.984375 70.90625 114.386719 C 89.210938 129.125 97.386719 144.238281 100.894531 153.160156 Z M 77.707031 119.863281 C 77.789062 119.929688 77.785156 119.925781 77.707031 119.863281 Z M 77.707031 119.863281 " fill-opacity="1" fill-rule="nonzero"/></g><path fill="#ff997a" d="M 70.902344 114.382812 C 70.902344 114.382812 70.90625 114.382812 70.90625 114.386719 C 69.640625 113.371094 69.1875 113.003906 70.902344 114.382812 Z M 70.902344 114.382812 " fill-opacity="1" fill-rule="nonzero"/><path fill="#ff997a" d="M 54.34375 102.199219 C 54.355469 102.210938 54.367188 102.21875 54.378906 102.230469 C 54.371094 102.226562 54.367188 102.21875 54.359375 102.210938 C 54.355469 102.207031 54.351562 102.199219 54.34375 102.199219 Z M 54.34375 102.199219 " fill-opacity="1" fill-rule="nonzero"/><path fill="#ff997a" d="M 54.359375 102.210938 C 54.554688 102.425781 54.476562 102.339844 54.378906 102.230469 C 57.300781 105.449219 60.339844 108.480469 63.480469 111.335938 C 67.046875 114.582031 70.808594 117.4375 74.398438 120.640625 C 80.214844 125.839844 85.683594 131.765625 90.417969 138.609375 C 93.667969 143.304688 96.597656 148.445312 98.863281 154.078125 C 89.824219 138.796875 77.480469 127.058594 64.433594 118.246094 C 57.933594 113.855469 51.527344 109.398438 45.417969 104.121094 L 41.195312 84.582031 C 42.160156 86.355469 43.261719 88.011719 44.367188 89.632812 C 47.445312 94.144531 50.820312 98.304688 54.347656 102.199219 C 54.238281 102.078125 54.140625 101.96875 54.359375 102.210938 Z M 54.359375 102.210938 " fill-opacity="1" fill-rule="nonzero"/><path fill="#ff997a" d="M 55.277344 115.144531 C 59.117188 117.910156 63.09375 120.339844 66.921875 123.125 C 74.132812 128.375 80.992188 134.554688 87.117188 141.792969 C 87.5 142.242188 87.878906 142.699219 88.257812 143.15625 C 81.460938 136.949219 74.046875 131.878906 66.285156 128.003906 C 58.40625 124.066406 50.066406 122.003906 42.242188 117.851562 C 39.53125 116.414062 36.871094 114.808594 34.28125 113.035156 L 29.746094 92.027344 C 34.375 97.675781 39.660156 102.53125 44.957031 107.042969 C 48.316406 109.914062 51.765625 112.613281 55.277344 115.144531 Z M 55.277344 115.144531 " fill-opacity="1" fill-rule="nonzero"/><path fill="#ff997a" d="M 33.796875 115.847656 C 34.785156 116.507812 34.054688 116.019531 33.804688 115.851562 C 37.242188 118.164062 40.796875 120.1875 44.4375 121.925781 C 48.445312 123.847656 52.554688 125.21875 56.664062 126.738281 C 64.769531 129.730469 72.578125 134.019531 79.855469 139.503906 C 84.300781 142.855469 88.558594 146.652344 92.539062 150.886719 C 84.699219 146.128906 76.441406 142.476562 68.183594 139.109375 C 59.832031 135.703125 51.351562 132.945312 42.921875 129.898438 C 36.636719 127.625 30.402344 125.066406 24.363281 121.875 L 20.632812 104.601562 C 24.488281 109.171875 29.183594 112.734375 33.789062 115.835938 C 33.71875 115.789062 33.695312 115.777344 33.796875 115.847656 Z M 33.796875 115.847656 " fill-opacity="1" fill-rule="nonzero"/><path fill="#ff997a" d="M 33.785156 115.839844 C 33.792969 115.84375 33.796875 115.84375 33.804688 115.847656 C 33.800781 115.847656 33.800781 115.847656 33.796875 115.84375 C 33.792969 115.84375 33.792969 115.839844 33.785156 115.839844 Z M 33.785156 115.839844 " fill-opacity="1" fill-rule="nonzero"/><g clip-path="url(#01655dff52)"><g clip-path="url(#13fbe76e7f)"><g clip-path="url(#10335c9877)"><g clip-path="url(#34b5c94c2f)"><path fill="#ff3131" d="M 144.777344 46.417969 L 159.660156 124.421875 L 101.15625 135.585938 L 86.269531 57.582031 Z M 144.777344 46.417969 " fill-opacity="1" fill-rule="nonzero"/></g></g></g></g><g clip-path="url(#6d1caebd3b)"><g clip-path="url(#4a8a59e420)"><g clip-path="url(#b6dcc88fe8)"><g clip-path="url(#f4f9f92822)"><path fill="#ff3131" d="M 138.222656 12.5625 L 157.632812 114.285156 L 88.976562 127.386719 L 69.566406 25.664062 Z M 138.222656 12.5625 " fill-opacity="1" fill-rule="nonzero"/></g></g></g></g><g clip-path="url(#c5c743c9f6)"><g clip-path="url(#128931516b)"><g clip-path="url(#312b112adf)"><path fill="#004aad" d="M 85.027344 70.226562 C 85.847656 67.152344 87.375 64.378906 89.304688 61.855469 C 88.589844 61.175781 87.871094 60.511719 87.125 59.859375 C 82.492188 55.835938 77.238281 52.5 73.136719 47.933594 C 69.042969 43.367188 66.175781 37.078125 67.699219 31.132812 C 68.25 39.84375 70.429688 43.070312 82.066406 52.816406 C 84.949219 55.238281 87.890625 57.617188 90.734375 60.09375 C 92.699219 57.824219 94.957031 55.757812 97.25 53.84375 C 99.265625 52.152344 101.355469 50.519531 103.378906 48.828125 C 100.679688 46.300781 97.496094 44.1875 94.296875 42.308594 C 88.328125 38.800781 81.941406 35.742188 77.085938 30.808594 C 72.21875 25.875 69.128906 18.421875 71.554688 11.9375 C 64.371094 20.625 58.789062 30.988281 57.503906 42.195312 C 56.21875 53.402344 59.71875 65.472656 68.179688 72.933594 C 72.4375 76.6875 77.691406 79.117188 82.917969 81.363281 C 83.660156 81.683594 84.40625 82 85.144531 82.3125 C 84.1875 78.328125 83.984375 74.171875 85.027344 70.226562 Z M 85.027344 70.226562 " fill-opacity="1" fill-rule="nonzero"/></g></g></g></svg>